<svg xmlns="http://www.w3.org/2000/svg" width="202" height="60" viewBox="0 0 202 60">
  <defs>
    <linearGradient id="button-play-store-es-a" x1="61.503%" x2="25.504%" y1="4.948%" y2="71.907%">
      <stop offset="0%" stop-color="#00A0FF"/>
      <stop offset="1%" stop-color="#00A1FF"/>
      <stop offset="26%" stop-color="#00BEFF"/>
      <stop offset="51%" stop-color="#00D2FF"/>
      <stop offset="76%" stop-color="#00DFFF"/>
      <stop offset="100%" stop-color="#00E3FF"/>
    </linearGradient>
    <linearGradient id="button-play-store-es-b" x1="107.685%" x2="-130.64%" y1="50%" y2="50%">
      <stop offset="0%" stop-color="#FFE000"/>
      <stop offset="41%" stop-color="#FFBD00"/>
      <stop offset="78%" stop-color="orange"/>
      <stop offset="100%" stop-color="#FF9C00"/>
    </linearGradient>
    <linearGradient id="button-play-store-es-c" x1="86.219%" x2="-50.15%" y1="31.689%" y2="132.483%">
      <stop offset="0%" stop-color="#FF3A44"/>
      <stop offset="100%" stop-color="#C31162"/>
    </linearGradient>
    <linearGradient id="button-play-store-es-d" x1="-18.754%" x2="42.121%" y1="-9.312%" y2="35.702%">
      <stop offset="0%" stop-color="#32A071"/>
      <stop offset="7%" stop-color="#2DA771"/>
      <stop offset="48%" stop-color="#15CF74"/>
      <stop offset="80%" stop-color="#06E775"/>
      <stop offset="100%" stop-color="#00F076"/>
    </linearGradient>
  </defs>
  <g fill="none" fill-rule="evenodd">
    <rect width="202" height="60" fill="#000" rx="8"/>
    <g transform="translate(17 12)">
      <path fill="url(#button-play-store-es-a)" d="M0.65777793,1.21175 C0.196036619,1.75441282 -0.0370210654,2.44911545 0.0061112637,3.15425 L0.0061112637,33.84575 C-0.0370210654,34.5508845 0.196036619,35.2455872 0.65777793,35.78825 L0.756944597,35.885375 L18.3094446,18.708125 L18.3094446,18.30575 L0.756944597,1.114625 L0.65777793,1.21175 Z"/>
      <path fill="url(#button-play-store-es-b)" d="M24.1177779,24.4385 L18.3094446,18.708125 L18.3094446,18.30575 L24.1177779,12.5615 L24.2452779,12.630875 L31.2011113,16.502 C33.1844446,17.598125 33.1844446,19.401875 31.2011113,20.511875 L24.2736113,24.369125 L24.1177779,24.4385 Z"/>
      <path fill="url(#button-play-store-es-c)" d="M24.2877779,24.35525 L18.3094446,18.5 L0.65777793,35.78825 C1.49179471,36.5063123 2.72955229,36.5412818 3.6044446,35.8715 L24.3019446,24.35525"/>
      <path fill="url(#button-play-store-es-d)" d="M24.2877779,12.64475 L3.59027793,1.1285 C2.71538563,0.458718217 1.47762805,0.493687669 0.643611264,1.21175 L18.3094446,18.5 L24.2877779,12.64475 Z"/>
    </g>
    <path fill="#FFF" d="M98.9382978,32.9647212 C95.5041774,32.9808819 92.7318476,35.775031 92.7426088,39.2091726 C92.75337,42.6433142 95.5431565,45.4200338 98.9773108,45.4146722 C102.411465,45.4093107 105.192568,42.6238934 105.192606,39.189735 C105.216734,37.5263729 104.564585,35.9244732 103.385528,34.7509393 C102.206472,33.5774055 100.601528,32.9327842 98.9382978,32.9647212 L98.9382978,32.9647212 Z M98.9382978,42.9686845 C97.3904333,43.0769342 95.9337004,42.2280009 95.2648386,40.82792 C94.5959767,39.4278391 94.850933,37.761179 95.9077647,36.625085 C96.9645963,35.488991 98.6085008,35.1143757 100.053217,35.6804136 C101.497932,36.2464514 102.449819,37.6380944 102.4536,39.189735 C102.501265,40.1603565 102.154847,41.1090792 101.492956,41.8206119 C100.831065,42.5321446 99.9098278,42.946152 98.9382978,42.9686845 L98.9382978,42.9686845 Z M85.3018559,32.9647212 C81.865794,32.9728061 79.0861101,35.7634095 79.0914968,39.1994767 C79.0968836,42.6355439 81.8853035,45.4174182 85.3213738,45.4147296 C88.7574442,45.412041 91.5415072,42.6258064 91.5415167,39.189735 C91.5656449,37.5263729 90.9134957,35.9244732 89.7344394,34.7509393 C88.555383,33.5774055 86.9504392,32.9327842 85.2872088,32.9647212 L85.3018559,32.9647212 Z M85.3018559,42.9686845 C83.7531834,43.0830388 82.2922031,42.2383385 81.6186276,40.8391389 C80.9450521,39.4399394 81.1960166,37.7711078 82.2513258,36.6319038 C83.3066349,35.4926997 84.9514352,35.1150571 86.3979765,35.6798417 C87.8445178,36.2446263 88.7982944,37.636852 88.8025107,39.189735 C88.8501764,40.1603565 88.5037579,41.1090792 87.841867,41.8206119 C87.1799762,42.5321446 86.2587388,42.946152 85.2872088,42.9686845 L85.3018559,42.9686845 Z M69.0582317,34.8834901 L69.0582317,37.5199666 L75.3857751,37.5199666 C75.2865607,38.7617525 74.7703697,39.9335062 73.9210659,40.8448563 C72.6409437,42.1487764 70.8694078,42.8510069 69.0435846,42.7782723 C65.1606893,42.7782723 62.0129808,39.6305638 62.0129808,35.7476685 C62.0129808,31.8647733 65.1606893,28.7170647 69.0435846,28.7170647 C70.8273011,28.6879739 72.5497495,29.3674719 73.8331834,30.6065395 L75.693364,28.7463589 C73.9429188,26.9738531 71.5492894,25.9857544 69.0582317,26.0073528 C65.5121134,25.8693465 62.1746752,27.6824993 60.3605751,30.7325881 C58.546475,33.7826768 58.546475,37.5808364 60.3605751,40.6309252 C62.1746752,43.6810139 65.5121134,45.4941667 69.0582317,45.3561604 C71.5947637,45.4707802 74.0569041,44.4827195 75.8105407,42.6464485 C77.3450809,40.9604535 78.1643914,38.7441136 78.095487,36.465376 C78.1002134,35.910234 78.0511607,35.3559391 77.949016,34.8102547 L69.0582317,34.8834901 Z M135.424202,36.9340829 C134.642164,34.6333326 132.521043,33.0541461 130.092661,32.9647212 C128.473225,32.9615549 126.924708,33.6288314 125.814801,34.8081068 C124.704895,35.9873822 124.132606,37.5734623 124.233824,39.189735 C124.197853,40.8438253 124.836061,42.4414307 126.001805,43.6154621 C127.167549,44.7894934 128.760593,45.4390026 130.414897,45.4147488 C132.496041,45.4259669 134.443789,44.3915696 135.599967,42.6610956 L133.476139,41.1963865 C132.831295,42.2713983 131.668477,42.9279173 130.414897,42.9247432 C129.116566,42.9742286 127.919972,42.224905 127.397596,41.0352685 L135.731791,37.593202 L135.424202,36.9340829 Z M126.928889,39.0139699 C126.868912,38.0987673 127.179832,37.1979429 127.791554,36.5145772 C128.403277,35.8312115 129.26431,35.4228278 130.180543,35.3814912 C131.146329,35.317852 132.056933,35.8365508 132.494784,36.6997295 L126.928889,39.0139699 Z M120.161933,45.0485715 L122.900939,45.0485715 L122.900939,26.7397074 L120.161933,26.7397074 L120.161933,45.0485715 Z M115.679923,34.3561949 L115.577393,34.3561949 C114.742454,33.4227017 113.548855,32.8898452 112.296445,32.8914857 C108.97177,33.0527087 106.359008,35.7952417 106.359008,39.1238231 C106.359008,42.4524044 108.97177,45.1949374 112.296445,45.3561604 C113.552915,45.377287 114.75425,44.8409765 115.577393,43.8914513 L115.665276,43.8914513 L115.665276,44.7849238 C115.665276,47.1723997 114.390979,48.4466966 112.340386,48.4466966 C110.943498,48.4140006 109.704976,47.5400907 109.205909,46.2349859 L106.818433,47.2309881 C107.737804,49.467322 109.92249,50.9218476 112.340386,50.907408 C115.548099,50.907408 118.199223,49.0179332 118.199223,44.4187466 L118.199223,33.3308985 L115.679923,33.3308985 L115.679923,34.3561949 Z M112.545446,42.9686845 C110.586965,42.7960829 109.084889,41.1558067 109.084889,39.189735 C109.084889,37.2236632 110.586965,35.583387 112.545446,35.4107854 C113.491823,35.4593515 114.378508,35.8879439 115.004472,36.5993917 C115.630436,37.3108395 115.942652,38.2448758 115.870335,39.189735 C115.951092,40.1389389 115.639874,41.0798412 115.009043,41.7936768 C114.378211,42.5075125 113.482728,42.932087 112.530799,42.9686845 L112.545446,42.9686845 Z M148.255054,26.7397074 L141.707804,26.7397074 L141.707804,45.0485715 L144.44681,45.0485715 L144.44681,38.1058502 L148.269701,38.1058502 C150.397461,38.2587128 152.432366,37.2101937 153.542845,35.3887752 C154.653323,33.5673567 154.653323,31.2782009 153.542845,29.4567824 C152.432366,27.6353639 150.397461,26.5868448 148.269701,26.7397074 L148.255054,26.7397074 Z M148.255054,35.5279622 L144.432163,35.5279622 L144.432163,29.2883013 L148.313642,29.2883013 C150.048811,29.2883013 151.455444,30.6949335 151.455444,32.4301024 C151.455444,34.1652712 150.048811,35.5719034 148.313642,35.5719034 L148.255054,35.5279622 Z M165.14315,32.8914857 C163.105319,32.769679 161.189442,33.8685756 160.265669,35.6890802 L162.697086,36.6997295 C163.186893,35.7969826 164.163443,35.2684971 165.187092,35.3521971 C165.889461,35.2701655 166.595342,35.4737241 167.146181,35.9171503 C167.697021,36.3605765 168.046641,37.0066957 168.11651,37.7103788 L168.11651,37.9007909 C167.236795,37.4350121 166.255732,37.1935198 165.260327,37.1977306 C162.638498,37.1977306 159.987374,38.6624397 159.987374,41.3135632 C160.039646,42.4556098 160.551639,43.5279537 161.40687,44.2866259 C162.2621,45.0452981 163.38784,45.4257819 164.527972,45.3415133 C165.932964,45.442407 167.280994,44.7683919 168.043274,43.5838623 L168.131157,43.5838623 L168.131157,45.0485715 L170.767633,45.0485715 L170.767633,38.0033206 C170.767633,34.7956076 168.336216,32.935427 165.216386,32.935427 L165.14315,32.8914857 Z M164.806267,42.9247432 C163.912795,42.9247432 162.667792,42.4706834 162.667792,41.3721516 C162.667792,39.9074424 164.220384,39.4240884 165.59721,39.4240884 C166.467309,39.4026186 167.327223,39.615068 168.087216,40.0392663 C167.897823,41.6788837 166.529532,42.9284644 164.879503,42.9686845 L164.806267,42.9247432 Z M180.376125,33.3308985 L177.241648,41.2696219 L177.153765,41.2696219 L173.902111,33.3308985 L170.972693,33.3308985 L175.850174,44.4333936 L173.067227,50.5998191 L175.923409,50.5998191 L183.42272,33.3308985 L180.376125,33.3308985 Z M155.754365,45.0485715 L158.493371,45.0485715 L158.493371,26.7397074 L155.754365,26.7397074 L155.754365,45.0485715 Z"/>
    <g fill="#FFF" stroke="#FFF" stroke-width=".2" transform="translate(59 9)">
      <path d="M0.42,10.5 L0.42,1.5 L3.165,1.5 C4.39370997,1.44452484 5.59157943,1.89440341 6.48,2.745 C7.32976862,3.61054835 7.78551402,4.78789063 7.74,6 C7.78948984,7.20991385 7.33928857,8.38694609 6.495,9.255 C5.60657943,10.1055966 4.40870997,10.5554752 3.18,10.5 L0.42,10.5 Z M1.575,9.39 L3.165,9.39 C4.07783633,9.43753845 4.97091656,9.112782 5.64,8.49 C6.27515211,7.82158669 6.60622436,6.92063599 6.555,6 C6.63290913,5.08190663 6.30299388,4.17602484 5.65291678,3.52305851 C5.00283968,2.87009218 4.09842983,2.53616299 3.18,2.61 L1.575,2.61 L1.575,9.39 Z"/>
      <polygon points="9.36 10.5 9.36 1.5 10.5 1.5 10.5 10.5"/>
      <path d="M15.12 10.695C14.4288907 10.6826097 13.7584197 10.4573734 13.2 10.05 12.5787817 9.6254757 12.1397674 8.98301573 11.97 8.25L13.02 7.83C13.1403168 8.31404052 13.4075534 8.7489549 13.785 9.075 14.1456182 9.40428694 14.6166623 9.58628126 15.105 9.585 15.5661688 9.60025254 16.0195237 9.46319177 16.395 9.195 16.7470081 8.95030644 16.95045 8.5434226 16.935 8.115 16.9543023 7.66494002 16.7527246 7.23378766 16.395 6.96 15.8773284 6.61097847 15.304197 6.35230855 14.7 6.195 14.0277401 6.01473517 13.4064579 5.68098854 12.885 5.22 12.4815976 4.82642026 12.2589949 4.28348685 12.27 3.72 12.2710224 3.07593243 12.5498457 2.46361463 13.035 2.04 13.5702711 1.55005254 14.2745861 1.28660647 15 1.305 15.667188 1.27476208 16.3243103 1.47613826 16.86 1.875 17.2878877 2.18729594 17.6119294 2.62109371 17.79 3.12L16.74 3.555C16.6481069 3.23586848 16.4529052 2.95625516 16.185 2.76 15.4994754 2.26685213 14.5755246 2.26685213 13.89 2.76 13.592447 2.97547884 13.4188513 3.32267028 13.425 3.69 13.4237264 4.02845167 13.5856753 4.34676502 13.86 4.545 14.2468445 4.82116561 14.6780563 5.02916188 15.135 5.16 15.5123789 5.27966307 15.882932 5.41987237 16.245 5.58 16.5628737 5.72837925 16.8644895 5.9093487 17.145 6.12 17.4417849 6.33144886 17.6793583 6.61550405 17.835 6.945 17.9996327 7.30744799 18.081611 7.7019689 18.075 8.1 18.0824032 8.50625033 17.9896743 8.90807525 17.805 9.27 17.6366514 9.59605701 17.3890709 9.87458504 17.085 10.08 16.7902077 10.2823996 16.4665653 10.4391639 16.125 10.545 15.7987769 10.6422647 15.4604071 10.6927677 15.12 10.695zM21 10.5L19.845 10.5 19.845 1.5 22.845 1.5C23.5788821 1.49053877 24.2881237 1.76456391 24.825 2.265 25.3616851 2.7591877 25.6670351 3.45544373 25.6670351 4.185 25.6670351 4.91455627 25.3616851 5.6108123 24.825 6.105 24.2889673 6.60678165 23.5791623 6.88102447 22.845 6.87L21 6.87 21 10.5zM21 5.745L22.935 5.745C23.3790685 5.76145104 23.8075746 5.58015998 24.105 5.25 24.3983278 4.96727515 24.5640389 4.57739973 24.5640389 4.17 24.5640389 3.76260027 24.3983278 3.37272485 24.105 3.09 23.8075746 2.75984002 23.3790685 2.57854896 22.935 2.595L21 2.595 21 5.745zM34.5 9.33C32.6744848 11.1453418 29.7255152 11.1453418 27.9 9.33 26.1304034 7.45685081 26.1304034 4.52814919 27.9 2.655 28.7729977 1.77562004 29.9608737 1.28104945 31.2 1.28104945 32.4391263 1.28104945 33.6270023 1.77562004 34.5 2.655 36.2771483 4.52513976 36.2771483 7.45986024 34.5 9.33L34.5 9.33zM28.755 8.58C30.1069859 9.92634761 32.2930141 9.92634761 33.645 8.58 34.9727975 7.11625671 34.9727975 4.88374329 33.645 3.42 32.2930141 2.07365239 30.1069859 2.07365239 28.755 3.42 27.4272025 4.88374329 27.4272025 7.11625671 28.755 8.58L28.755 8.58z"/>
      <polygon points="37.5 10.5 37.5 1.5 38.91 1.5 43.29 8.505 43.29 8.505 43.29 6.765 43.29 1.5 44.445 1.5 44.445 10.5 43.245 10.5 38.67 3.165 38.67 3.165 38.67 4.905 38.67 10.5"/>
      <polygon points="46.5 10.5 46.5 1.5 47.655 1.5 47.655 10.5"/>
      <path d="M49.65,10.5 L49.65,1.5 L52.905,1.5 C53.5808407,1.48723621 54.235831,1.73419974 54.735,2.19 C55.2368531,2.63318152 55.5169195,3.27568685 55.5,3.945 C55.5070394,4.34484322 55.3919139,4.73731643 55.17,5.07 C54.949765,5.39314655 54.6430903,5.64784252 54.285,5.805 L54.285,5.805 C54.7201007,5.94903296 55.1016933,6.22085237 55.38,6.585 C55.6684327,6.95250569 55.8219877,7.40787581 55.815,7.875 C55.8305041,8.57508876 55.5336473,9.24576514 55.005,9.705 C54.482706,10.1867816 53.795498,10.4498535 53.085,10.44 L49.65,10.5 Z M50.805,5.355 L52.905,5.355 C53.3019583,5.37157145 53.6860619,5.21244285 53.955,4.92 C54.2212936,4.67460869 54.3764774,4.33156809 54.3849622,3.9695499 C54.393447,3.6075317 54.2545048,3.25759752 54,3 C53.746224,2.71294569 53.3779771,2.55355524 52.995,2.565 L50.805,2.565 L50.805,5.355 Z M50.805,9.39 L53.13,9.39 C53.5413281,9.40379965 53.9373496,9.23329038 54.21,8.925 C54.4744726,8.65068734 54.6246361,8.28600449 54.63,7.905 C54.63,7.07657288 53.9584271,6.405 53.13,6.405 L50.805,6.405 L50.805,9.39 Z"/>
      <polygon points="57.36 10.5 57.36 1.5 58.5 1.5 58.5 9.39 62.4 9.39 62.4 10.5"/>
      <polygon points="69.135 2.61 65.025 2.61 65.025 5.46 68.715 5.46 68.715 6.54 65.025 6.54 65.025 9.39 69.12 9.39 69.12 10.5 63.87 10.5 63.87 1.5 69.12 1.5"/>
      <polygon points="79.215 2.61 75.12 2.61 75.12 5.46 78.81 5.46 78.81 6.54 75.12 6.54 75.12 9.39 79.215 9.39 79.215 10.5 73.965 10.5 73.965 1.5 79.215 1.5"/>
      <polygon points="81 10.5 81 1.5 82.5 1.5 86.88 8.505 86.88 8.505 86.88 6.765 86.88 1.5 88.035 1.5 88.035 10.5 86.835 10.5 82.26 3.165 82.26 3.165 82.26 4.905 82.26 10.5"/>
    </g>
  </g>
</svg>
